<?xml version="1.0" encoding="utf-8"?>
<!-- Generator: Adobe Illustrator 22.0.1, SVG Export Plug-In . SVG Version: 6.00 Build 0)  -->
<svg version="1.1" id="Layer_1" xmlns="http://www.w3.org/2000/svg" xmlns:xlink="http://www.w3.org/1999/xlink" x="0px" y="0px"
	 width="341.665px" height="397.681px" viewBox="0 0 341.665 397.681" style="enable-background:new 0 0 341.665 397.681;"
	 xml:space="preserve">
<style type="text/css">
	.st0{fill:#FFC72C;stroke:#000000;stroke-width:0.75;}
	.st1{stroke:#1D1D1B;stroke-width:2.2;}
	.st2{fill:#FF671F;stroke:#000000;stroke-width:0.75;}
</style>
<path class="st0" d="M44.666,259.936c16.221,52.459,66.125,90.666,125.182,90.666c59.057,0,108.959-38.207,125.18-90.666H44.666z"/>
<g>
	<path class="st1" d="M40.977,227.266l-20.561,2.082l-0.625-5.021l27.752-2.941l0.627,5.021l-0.781,0.145L27.53,267.662
		l-5.004-2.152l8.523-17.652c-1.799,1.578-4.064,3.016-6.646,4.305c-2.578,1.363-5.002,2.012-7.348,2.012
		c-3.283,0-6.176-0.574-8.521-1.65c-2.424-1.15-4.297-2.801-5.549-5.023c-1.252-2.225-1.957-4.879-1.879-8.037
		c0.082-3.586,1.174-7.318,3.051-11.336c1.953-4.016,4.533-7.818,7.895-11.551c3.363-3.66,7.193-6.814,11.57-9.398
		c4.377-2.582,8.914-4.234,13.682-5.096l7.191-1.291l0.938,4.879l-7.193,1.291c-4.299,0.791-8.363,2.297-12.193,4.736
		c-3.832,2.369-7.27,5.238-10.162,8.682c-2.971,3.371-5.238,6.816-6.879,10.402c-1.643,3.516-2.504,6.744-2.504,9.688
		c0,2.799,0.939,4.949,2.504,6.602c1.641,1.576,4.064,2.365,7.269,2.365c2.344,0,4.769-0.789,7.269-2.439
		c2.502-1.578,4.533-3.229,6.02-4.877l8.209-8.824L40.977,227.266z"/>
	<path class="st1" d="M71.622,216.217l2.422,4.594c-3.908,1.576-7.66,3.658-11.101,6.385c-3.439,2.727-6.018,5.668-7.66,8.896
		l-8.832,17.004l-5.084-2.01l15.324-33.504l5,1.863c-0.232,0.646-0.625,1.438-1.014,2.369c-0.469,1.004-0.703,1.508-0.781,1.578
		C63.176,220.596,67.086,218.156,71.622,216.217z"/>
	<path class="st1" d="M88.426,221.672c2.109,0,3.285,1.434,3.207,4.23c-0.078,4.307-1.252,8.182-3.439,11.768
		c-2.111,3.516-4.535,6.385-7.193,8.467c-2.658,2.082-4.689,3.158-6.02,3.158c-1.799-0.145-2.734-1.725-2.734-4.664
		c0-3.086,0.936-6.457,2.656-10.047c1.799-3.658,3.986-6.67,6.566-9.184C84.049,222.891,86.395,221.672,88.426,221.672z
		 M74.137,253.887c2.66,0,5.238-0.861,7.816-2.656c2.66-1.721,4.928-4.018,6.957-6.814c2.035-2.801,3.676-5.813,5.004-8.969
		c1.252-3.158,2.111-6.1,2.189-8.754c0.08-3.301-0.783-5.74-2.424-7.318c-1.563-1.65-3.832-2.439-6.721-2.439
		c-2.584,0-5.238,0.934-7.742,2.797c-2.576,1.865-4.924,4.305-6.957,7.32c-2.031,2.939-3.674,6.025-4.846,9.184
		c-1.174,3.156-1.797,5.883-1.797,8.25c0.078,3.158,0.855,5.523,2.342,7.031C69.525,253.096,71.557,253.887,74.137,253.887z"/>
	<path class="st1" d="M116.569,221.672c2.109,0,3.283,1.434,3.205,4.23c-0.08,4.307-1.254,8.182-3.441,11.768
		c-2.111,3.516-4.533,6.385-7.189,8.467c-2.658,2.082-4.692,3.158-6.022,3.158c-1.795-0.145-2.734-1.725-2.734-4.664
		c0-3.086,0.939-6.457,2.654-10.047c1.799-3.658,3.99-6.67,6.57-9.184C112.19,222.891,114.534,221.672,116.569,221.672z
		 M103.28,253.887c2.658,0,5.236-0.861,7.818-2.656c2.656-1.721,4.924-4.018,6.955-6.814c2.033-2.801,3.676-5.813,5.004-8.969
		c1.248-3.158,2.109-6.1,2.187-8.754c0.08-3.301-0.781-5.74-2.422-7.318c-1.564-1.65-3.83-2.439-6.725-2.439
		c-2.578,0-5.236,0.934-7.738,2.797c-2.578,1.865-4.924,4.305-6.955,7.32c-2.035,2.939-3.676,6.025-4.848,9.184
		c-1.172,3.156-1.799,5.883-1.799,8.25c0.078,3.158,0.861,5.523,2.344,7.031C98.666,253.096,100.7,253.887,103.28,253.887z"/>
	<path class="st1" d="M136.329,218.57c2.604-4.133,5.488-8.395,8.723-12.656l3.945,2.518c-2.818,3.877-5,7.041-6.477,9.494
		l15.268-1.809l0.564,4.586l-18.576,2.129c-3.518,5.748-6.756,13.043-9.848,21.826c5.627-4.324,11.889-8.07,18.783-11.234
		l2.182,4.131c-3.025,1.357-5.908,2.842-8.723,4.457c-2.818,1.615-5.49,3.424-8.092,5.422c-2.605,1.938-4.994,3.939-7.176,6.07
		l-4.15-2.195c1.332-4.518,2.883-9.104,4.783-13.625c1.828-4.52,4.01-9.232,6.471-14.203l-10.234,1.402l-0.561-4.518L136.329,218.57
		z"/>
	<path class="st1" d="M177.309,202.73c-1.408,2.727-2.816,5.381-4.223,8.033c-1.408,2.584-2.658,5.096-3.908,7.463
		c-1.252,2.439-2.422,4.664-3.439,6.674c-1.018,2.078-2.111,4.232-3.207,6.6c2.502-2.51,4.77-4.521,6.646-6.17
		c1.875-1.58,3.908-3.086,6.02-4.447c2.189-1.438,4.689-2.943,7.584-4.521l3.828,3.229c-1.564,2.584-3.051,5.236-4.453,7.963
		c-1.408,2.727-2.738,5.455-3.99,8.182c-1.328,2.797-2.502,5.523-3.516,8.178c-1.098,2.582-2.188,5.523-3.285,8.754l-5.234-1.58
		c3.201-9.471,6.877-17.936,10.865-25.326c-9.928,6.961-17.902,16-24.08,27.051l-5.08-2.154c2.344-5.451,4.926-11.119,7.662-16.932
		c2.658-5.74,5.473-11.48,8.361-17.076c2.896-5.598,5.787-10.979,8.604-16.145L177.309,202.73z"/>
	<path class="st1" d="M198.961,241.545c-2.346,2.223-4.924,4.09-7.66,5.596c-2.736,1.506-4.846,2.295-6.256,2.295
		c-1.092,0-1.641-0.357-1.641-1.146c0.078-1.363,1.016-3.301,2.738-5.74c1.797-2.367,4.063-4.807,6.721-7.246
		c1.799-1.65,3.598-3.158,5.473-4.447c1.875-1.293,3.598-2.369,5.08-3.229c1.564-0.863,4.145-2.369,7.736-4.379
		c-0.857,1.508-2.184,3.66-3.904,6.457c-1.721,2.727-3.285,5.24-4.848,7.463C200.914,239.32,199.743,240.756,198.961,241.545z
		 M214.047,221.385c0.08-0.074,0.234-0.145,0.393-0.217c0.154-0.07,0.236-0.145,0.236-0.215l-2.893-4.16l-11.648,6.814
		c-5.943,3.445-11.104,7.535-15.557,12.053c-4.455,4.521-6.725,8.539-6.725,12.055c0,1.65,0.469,3.084,1.484,4.305
		c1.02,1.293,2.658,2.01,5.082,2.01c2.658,0,5.551-0.717,8.598-2.154c3.051-1.504,5.553-3.299,7.584-5.523
		c-0.154,0.432-0.547,1.506-1.014,3.229c-0.473,1.65-0.705,2.582-0.785,2.656l5.318,1.219c0.701-2.439,1.563-5.096,2.578-7.82
		c1.02-2.727,2.031-5.309,3.129-7.748c1.092-2.439,2.264-4.879,3.439-7.176c1.172-2.295,2.578-4.879,4.145-7.75L214.047,221.385z"/>
	<path class="st1" d="M233.043,222.316c2.814-1.865,6.646-4.09,11.492-6.674l3.988,3.229l-16.965,35.303l-5.004-1.938L240,224.326
		c-2.734,1.65-5.234,3.588-7.74,5.666c-2.422,2.082-4.691,4.305-6.801,6.674c-2.187,2.367-4.143,4.879-6.016,7.533
		c-1.877,2.584-3.516,5.311-5.084,8.037l-5.076-1.939l15.863-33.217l5.082,1.936c-0.309,0.791-1.172,2.512-2.5,5.021
		c-1.252,2.514-2.27,4.449-2.893,5.885C227.569,226.764,230.307,224.182,233.043,222.316z"/>
	<path class="st1" d="M268.768,221.385l-4.375,9.109c-1.412,3.014-3.365,5.885-5.707,8.756c-2.344,2.869-4.772,5.166-7.193,6.957
		c-2.422,1.725-4.377,2.727-5.865,2.943c-0.543,0-0.938-0.359-1.092-1.148c0.078-1.434,1.016-3.73,2.889-6.959
		c1.801-3.156,4.143-6.314,6.881-9.471c2.736-3.086,5.551-5.383,8.211-6.816L268.768,221.385z M278.305,202.082l-8.6,17.221
		l-2.582-3.086l-7.656,4.594c-2.27,1.363-4.613,3.084-6.957,5.236c-2.348,2.152-4.537,4.447-6.57,6.961
		c-1.953,2.439-3.596,4.949-4.766,7.389c-1.252,2.512-1.875,4.809-1.875,6.816c0,1.721,0.623,3.158,1.641,4.377
		c1.014,1.221,2.422,1.865,4.219,1.865c3.209,0,7.113-1.65,11.727-5.021l1.565-1.15l-1.721,3.66l5.082,2.008
		c1.563-3.586,3.752-8.535,6.488-14.922c2.815-6.387,5.549-12.699,8.365-19.084c2.734-6.387,4.926-11.336,6.488-14.926
		L278.305,202.082z"/>
	<path class="st1" d="M291.985,223.895c0,1.076-0.779,2.369-2.188,3.875c-1.486,1.508-3.287,3.012-5.549,4.449
		c-2.27,1.434-4.537,2.582-6.807,3.441c2.27-3.299,4.693-6.455,7.271-9.396c2.582-2.941,4.455-4.449,5.631-4.449
		c0.701,0,1.176,0.145,1.328,0.502C291.905,222.604,291.985,223.105,291.985,223.895z M277.273,238.461l1.014,2.439
		c3.285-1.221,6.332-2.584,9.148-4.09c2.814-1.508,5.16-3.373,7.191-5.668c2.037-2.297,3.131-4.953,3.131-7.895
		c0-4.303-1.412-6.455-4.303-6.455c-1.564,0-3.438,0.645-5.627,2.078c-2.113,1.363-4.303,3.158-6.488,5.311
		c-2.266,2.225-4.221,4.592-5.943,7.031c-1.717,2.369-2.893,4.592-3.594,6.457c-1.252,3.156-2.033,6.314-2.189,9.4
		c0.236,4.09,2.035,6.313,5.397,6.816c0.387,0.07,1.016,0.143,1.875,0.143c1.953,0,3.906-0.504,5.857-1.506
		c1.959-1.006,3.678-2.439,5.238-4.377c1.564-1.865,2.658-4.018,3.447-6.457l-5.164,1.289c-1.645,2.514-3.045,4.234-4.379,5.096
		c-1.328,0.934-3.129,1.361-5.238,1.361c-1.17,0-1.797-0.715-1.951-2.152c0.154-1.791,0.857-4.16,1.951-7.102L277.273,238.461z"/>
	<path class="st1" d="M319.579,203.158c-2.34,4.377-4.373,8.469-6.174,12.127c-1.877,3.73-3.75,7.82-5.707,12.267
		c-2.029,4.449-3.83,8.611-5.395,12.629c-1.641,4.018-3.205,8.178-4.688,12.484l-5.162-1.58c5.707-16.07,13.135-32.787,22.275-50.15
		L319.579,203.158z"/>
</g>
<path d="M54.85,83.486H43.211V80.42h33.359v3.066h-11.76V192.16h11.76v3.068H43.211v-3.068H54.85v-59.908H22.692v59.908h11.639
	v3.068H0.971v-3.068h11.641V83.486H0.971V80.42h33.359v3.066H22.692v45.699H54.85V83.486z"/>
<path d="M105.01,120.143c9.84,0,12.24,12.109,12.24,37.139c0,25.191-2.281,37.141-12.24,37.141c-9.961,0-12.24-11.949-12.24-37.141
	C92.77,132.252,95.049,120.143,105.01,120.143z M105.01,117.559c-11.76,0-22.201,16.793-22.201,39.723
	c0,22.93,10.441,39.885,22.201,39.885c11.76,0,22.199-16.955,22.199-39.885C127.209,134.352,116.649,117.559,105.01,117.559z"/>
<path d="M164.288,117.559c4.32,0,8.041,4.684,8.041,11.465c0,4.521-2.16,7.912-5.4,7.912c-2.881,0-4.92-2.744-4.92-6.621
	c0-4.037,1.92-6.781,4.559-6.781c1.201,0,2.4,0.646,3.602,2.1c-1.201-3.715-3.48-5.49-6.48-5.49c-6.84,0-13.32,14.209-13.32,36.816
	v35.686h8.4v2.584h-25.561v-2.584h8.281v-70.727h-8.281v-2.584h16.68l0.48,18.57C153.127,124.502,157.807,117.559,164.288,117.559z"
	/>
<path d="M187.567,152.76c0.361-22.283,3.602-32.617,12-32.617c8.041,0,10.32,7.428,10.32,24.059c0,2.584,0,5.49-0.119,8.559H187.567
	z M217.086,171.977c-2.039,14.209-8.398,22.283-15.719,22.283c-10.08,0-14.16-9.689-14.16-30.52c0-2.584,0.119-5.49,0.24-8.396
	h31.92c-0.48-23.736-9.121-37.785-19.68-37.785c-5.041,0-9.6,2.744-13.441,8.559c-5.879,8.881-8.76,19.053-8.76,30.68
	c0,23.252,10.201,40.369,23.041,40.369c9.359,0,16.439-9.043,18.6-25.189H217.086z"/>
<path d="M249.006,197.166c-11.641,0-22.199-16.955-22.199-39.723c0-12.434,3.479-24.061,9.6-32.295
	c3.84-5.168,8.279-7.59,13.799-7.59c7.801,0,14.041,8.559,14.041,19.215c0,6.299-2.641,10.012-6.24,10.012
	c-3.24,0-5.641-3.391-5.641-7.588c0-4.361,2.281-7.59,5.52-7.59c1.682,0,3,0.969,4.32,2.906c-1.32-9.205-5.879-14.371-12.119-14.371
	c-11.76,0-13.32,13.402-13.32,40.529c0,22.77,2.52,33.588,12.6,33.588c9,0,15.721-10.174,16.68-27.936h1.92
	C266.766,186.023,259.567,197.166,249.006,197.166z"/>
<path d="M299.766,150.822v16.633c0,16.309-6.721,26.643-12.6,26.643c-4.92,0-6-5.328-6-16.471c0-11.949,0.959-18.408,5.039-20.508
	C289.926,155.182,294.965,154.859,299.766,150.822z M300.485,180.049c0,0.324,0,0.646,0,0.809c0,10.012,4.08,16.309,9.84,16.309
	c5.521,0,8.641-6.137,8.881-17.924h-2.041c-0.238,9.365-2.279,14.371-5.279,14.371c-2.279,0-3.24-2.422-3.24-7.266v-46.182
	c0-14.533-6.359-22.607-16.08-22.607c-10.439,0-17.279,7.75-17.279,16.309c0,5.006,2.279,8.396,5.16,8.396
	c3.24,0,5.4-2.906,5.4-7.104c0-3.877-1.92-6.459-4.441-6.459c-0.719,0-1.318,0.322-2.039,0.807c1.92-5.652,6.24-9.043,10.801-9.043
	c6.6,0,9.6,4.037,9.6,12.756v14.533c-4.441,4.037-9.84,5.168-15.481,6.943c-7.801,2.584-12.119,10.012-12.119,20.832
	c0,13.725,5.16,21.637,13.68,21.637C292.325,197.166,296.766,191.514,300.485,180.049z"/>
<path d="M27.588,329.38l-3.806-5.306l25.399-18.217l-5.504-7.677l5.459-3.914l14.813,20.658l-5.457,3.915l-5.506-7.677
	L27.588,329.38z"/>
<path d="M44.808,349.633l-4.59-4.645l27.02-26.685l4.588,4.645L44.808,349.633z"/>
<path d="M61.726,354.333l11.861,10.041l-4.441,5.248l-16.846-14.26l24.535-28.982l4.984,4.219L61.726,354.333z"/>
<path d="M89.27,360.857l7.498,3.59c2.121,1.016,3.693,3.176,2.254,6.18c-1.666,3.482-4.047,4.221-6.912,2.848l-7.225-3.459
	L89.27,360.857z M76.399,373.225l11.936,5.715c5.771,2.764,7.875,2.303,10.398,1.166c2.336-1.051,4.512-3.176,5.814-5.895
	c1.621-3.387,2.316-7.158-0.385-10.387c1.52-0.152,4.459-0.445,6.813-5.359c1.689-3.529,2.434-9.623-4.477-12.932l-13.703-6.561
	L76.399,373.225z M95.618,347.596l6.754,3.232c2.67,1.279,3.908,2.928,2.561,5.742c-1.303,2.719-3.672,2.932-5.988,1.822
	l-6.912-3.307L95.618,347.596z"/>
<path d="M137.484,381.677c-2.221,9.746-8.01,12.82-15.693,11.07c-2.801-0.639-6.771-2.41-8.654-6.691
	c-1.139-2.647-1.094-5.781-0.334-9.514l5.592-24.547l6.494,1.48l-5.475,24.029c-1.174,5.158,0.771,7.986,3.742,8.664
	c4.371,0.996,6.742-1.176,7.764-5.662l5.557-24.393l6.494,1.48L137.484,381.677z"/>
<path d="M154.698,375.263l0.613-10.137l8.127,0.494c3.822,0.23,4.383,3.232,4.262,5.238c-0.229,3.748-1.965,5.074-5.355,4.867
	L154.698,375.263z M147.024,396.099l6.387,0.387l0.9-14.834l6.734,0.408c4.822,0.291,4.963,2.314,4.648,7.486
	c-0.236,3.908-0.094,5.877,0.23,7.697l7.213,0.438l0.063-1.002c-1.354-0.719-1.27-2.092-0.934-7.635
	c0.428-7.074-0.891-8.32-3.371-9.848c3.16-1.08,5.117-4.564,5.369-8.734c0.199-3.273-0.871-10.809-9.17-11.313l-15.773-0.957
	L147.024,396.099z"/>
<path d="M196.366,375.071l12.918-1.912l2.998,20.248l-4.307,0.637l-1.344-4.613c-1.295,2.545-3.16,6.295-8.801,7.131
	c-7.451,1.102-15.172-4.385-17.123-17.568c-1.518-10.256,1.744-20.629,12.172-22.119c9.475-1.402,14.328,5.525,15.439,10.654
	l-6.459,0.955c-0.217-1.465-3.111-5.848-7.676-5.172c-4.607,0.682-8.297,5.184-6.873,14.811c1.518,10.254,6.521,12.24,10.914,11.59
	c1.42-0.209,6.057-1.59,6.27-9.375l-7.191,1.065L196.366,375.071z"/>
<path d="M250.966,361.128l6.822-4.752c1.93-1.344,4.584-1.645,6.488,1.09c2.205,3.168,1.674,5.602-0.934,7.418l-6.574,4.578
	L250.966,361.128z M255.374,378.425l10.859-7.563c5.25-3.658,5.889-5.713,6.143-8.469c0.24-2.551-0.535-5.492-2.258-7.967
	c-2.146-3.08-5.084-5.547-9.225-4.789c0.617-1.397,1.813-4.1-1.301-8.568c-2.236-3.213-7.17-6.867-13.457-2.488l-12.465,8.684
	L255.374,378.425z M242.562,349.063l6.145-4.279c2.43-1.691,4.473-1.955,6.256,0.605c1.725,2.473,0.74,4.641-1.367,6.109
	l-6.287,4.379L242.562,349.063z"/>
<path d="M287.674,348.803l-4.668,4.566l-5.4-5.517l4.666-4.568L287.674,348.803z"/>
<path d="M279.146,307.533l4.125-5.397l23.719,31.5l-3.779,4.947l-36.568-14.693l4.256-5.566l26.93,12.147l0.055-0.07
	L279.146,307.533z"/>
<path d="M314.459,313.908l-3.445,5.547l-6.559-4.074l3.443-5.547L314.459,313.908z"/>
<path class="st2" d="M341.194,99.936c-13.08-56.979-65.228-99.561-127.572-99.561c-62.346,0-114.492,42.582-127.574,99.561H341.194z
	"/>
</svg>
